<mxfile host="app.diagrams.net" modified="2023-06-01T10:58:42.145Z" agent="Mozilla/5.0 (Windows NT 10.0; Win64; x64) AppleWebKit/537.36 (KHTML, like Gecko) Chrome/113.0.0.0 Safari/537.36" etag="iKQwLVjnqPAOhL0GV5_S" version="21.3.6" type="device">
  <diagram name="Page-1" id="rjE9p1RSg3lDvPbiWZpe">
    <mxGraphModel dx="1434" dy="739" grid="1" gridSize="10" guides="1" tooltips="1" connect="1" arrows="1" fold="1" page="1" pageScale="1" pageWidth="850" pageHeight="1100" math="0" shadow="0">
      <root>
        <mxCell id="0" />
        <mxCell id="1" parent="0" />
        <mxCell id="FaXRU5658oyIRG-1Cqcd-27" value="" style="rounded=0;whiteSpace=wrap;html=1;" vertex="1" parent="1">
          <mxGeometry x="10" y="10" width="750" height="270" as="geometry" />
        </mxCell>
        <mxCell id="FaXRU5658oyIRG-1Cqcd-6" value="&lt;p style=&quot;margin:0px;margin-top:4px;text-align:center;&quot;&gt;&lt;i&gt;&amp;lt;&amp;lt;Interface&amp;gt;&amp;gt;&lt;/i&gt;&lt;br&gt;&lt;b&gt;Command&lt;/b&gt;&lt;/p&gt;&lt;hr size=&quot;1&quot;&gt;&lt;p style=&quot;margin:0px;margin-left:4px;&quot;&gt;+ Execute()&lt;br&gt;&lt;/p&gt;" style="verticalAlign=top;align=left;overflow=fill;fontSize=12;fontFamily=Helvetica;html=1;whiteSpace=wrap;" vertex="1" parent="1">
          <mxGeometry x="540" y="50" width="190" height="70" as="geometry" />
        </mxCell>
        <mxCell id="FaXRU5658oyIRG-1Cqcd-26" style="edgeStyle=orthogonalEdgeStyle;rounded=0;orthogonalLoop=1;jettySize=auto;html=1;endArrow=block;endFill=0;" edge="1" parent="1" source="FaXRU5658oyIRG-1Cqcd-7" target="FaXRU5658oyIRG-1Cqcd-6">
          <mxGeometry relative="1" as="geometry" />
        </mxCell>
        <mxCell id="FaXRU5658oyIRG-1Cqcd-28" style="edgeStyle=orthogonalEdgeStyle;rounded=0;orthogonalLoop=1;jettySize=auto;html=1;exitX=0;exitY=0.25;exitDx=0;exitDy=0;entryX=1;entryY=0.75;entryDx=0;entryDy=0;" edge="1" parent="1" source="FaXRU5658oyIRG-1Cqcd-7" target="FaXRU5658oyIRG-1Cqcd-17">
          <mxGeometry relative="1" as="geometry" />
        </mxCell>
        <mxCell id="FaXRU5658oyIRG-1Cqcd-7" value="ConcreteCommand" style="swimlane;fontStyle=1;align=center;verticalAlign=top;childLayout=stackLayout;horizontal=1;startSize=26;horizontalStack=0;resizeParent=1;resizeParentMax=0;resizeLast=0;collapsible=1;marginBottom=0;whiteSpace=wrap;html=1;" vertex="1" parent="1">
          <mxGeometry x="555" y="200" width="160" height="52" as="geometry" />
        </mxCell>
        <mxCell id="FaXRU5658oyIRG-1Cqcd-10" value="+ Execute()" style="text;strokeColor=none;fillColor=none;align=left;verticalAlign=top;spacingLeft=4;spacingRight=4;overflow=hidden;rotatable=0;points=[[0,0.5],[1,0.5]];portConstraint=eastwest;whiteSpace=wrap;html=1;" vertex="1" parent="FaXRU5658oyIRG-1Cqcd-7">
          <mxGeometry y="26" width="160" height="26" as="geometry" />
        </mxCell>
        <mxCell id="FaXRU5658oyIRG-1Cqcd-17" value="&lt;p style=&quot;margin:0px;margin-top:4px;text-align:center;&quot;&gt;&lt;br&gt;&lt;b&gt;Receiver&lt;/b&gt;&lt;/p&gt;" style="verticalAlign=top;align=left;overflow=fill;fontSize=12;fontFamily=Helvetica;html=1;whiteSpace=wrap;" vertex="1" parent="1">
          <mxGeometry x="220" y="120" width="140" height="60" as="geometry" />
        </mxCell>
        <mxCell id="FaXRU5658oyIRG-1Cqcd-25" style="edgeStyle=orthogonalEdgeStyle;rounded=0;orthogonalLoop=1;jettySize=auto;html=1;exitX=1;exitY=0.5;exitDx=0;exitDy=0;entryX=0;entryY=0.5;entryDx=0;entryDy=0;startArrow=diamond;startFill=0;" edge="1" parent="1" source="FaXRU5658oyIRG-1Cqcd-20" target="FaXRU5658oyIRG-1Cqcd-6">
          <mxGeometry relative="1" as="geometry" />
        </mxCell>
        <mxCell id="FaXRU5658oyIRG-1Cqcd-20" value="&lt;p style=&quot;margin:0px;margin-top:4px;text-align:center;&quot;&gt;&lt;br&gt;&lt;b&gt;Invoker&lt;/b&gt;&lt;/p&gt;" style="verticalAlign=top;align=left;overflow=fill;fontSize=12;fontFamily=Helvetica;html=1;whiteSpace=wrap;" vertex="1" parent="1">
          <mxGeometry x="270" y="20" width="140" height="60" as="geometry" />
        </mxCell>
        <mxCell id="FaXRU5658oyIRG-1Cqcd-23" style="edgeStyle=orthogonalEdgeStyle;rounded=0;orthogonalLoop=1;jettySize=auto;html=1;exitX=0.5;exitY=1;exitDx=0;exitDy=0;entryX=0;entryY=0.5;entryDx=0;entryDy=0;" edge="1" parent="1" source="FaXRU5658oyIRG-1Cqcd-21" target="FaXRU5658oyIRG-1Cqcd-17">
          <mxGeometry relative="1" as="geometry" />
        </mxCell>
        <mxCell id="FaXRU5658oyIRG-1Cqcd-24" style="edgeStyle=orthogonalEdgeStyle;rounded=0;orthogonalLoop=1;jettySize=auto;html=1;exitX=0.25;exitY=1;exitDx=0;exitDy=0;entryX=0;entryY=0.5;entryDx=0;entryDy=0;dashed=1;" edge="1" parent="1" source="FaXRU5658oyIRG-1Cqcd-21" target="FaXRU5658oyIRG-1Cqcd-10">
          <mxGeometry relative="1" as="geometry" />
        </mxCell>
        <mxCell id="FaXRU5658oyIRG-1Cqcd-21" value="&lt;p style=&quot;margin:0px;margin-top:4px;text-align:center;&quot;&gt;&lt;br&gt;&lt;b&gt;Client&lt;/b&gt;&lt;/p&gt;" style="verticalAlign=top;align=left;overflow=fill;fontSize=12;fontFamily=Helvetica;html=1;whiteSpace=wrap;" vertex="1" parent="1">
          <mxGeometry x="30" y="40" width="140" height="60" as="geometry" />
        </mxCell>
      </root>
    </mxGraphModel>
  </diagram>
</mxfile>
